<svg xmlns="http://www.w3.org/2000/svg" xmlns:xlink="http://www.w3.org/1999/xlink" xmlns:inkscape="http://www.inkscape.org/namespaces/inkscape" version="1.1" width="612" height="792" viewBox="0 0 612 792">
<defs>
<clipPath id="clip_1">
<path transform="matrix(1,0,0,-1,0,792)" d="M0 792H612V0H0Z"/>
</clipPath>
</defs>
<g inkscape:groupmode="layer" inkscape:label="Layer 1">
<g clip-path="url(#clip_1)">
<path transform="matrix(1,0,0,-1,163.8318,415.0364)" d="M0 0V-5.96H-16.174V-12.758H0V-18.624H-37.783V-12.81C-37.533-12.802-37.3-12.776-37.059-12.776H-22.333C-21.816-12.776-21.566-12.508-21.566-11.982V-6.004H-37.765V0ZM-37.826 39.181V39.741C-37.826 42.709-37.852 45.676-37.792 48.644-37.74 50.844-37.144 52.879-35.497 54.466-34.168 55.751-32.513 56.476-30.718 56.545-27.596 56.675-24.447 56.735-21.333 56.545-17.331 56.295-14.622 53.466-14.328 49.489-14.224 48.048-14.311 46.582-14.311 45.064H-.017V39.181ZM-32.383 45.081C-32.305 45.064-32.254 45.047-32.193 45.047-28.13 45.047-24.067 45.047-20.004 45.037-19.65 45.037-19.556 45.176-19.565 45.495-19.582 46.262-19.565 47.022-19.565 47.79-19.573 49.687-20.453 50.705-22.35 50.774-24.792 50.861-27.233 50.844-29.675 50.774-31.262 50.731-32.202 49.998-32.348 48.669-32.478 47.496-32.375 46.298-32.375 45.073ZM-5.322 19.159H-.017V3.019H-37.783V19.15H-32.46V18.469C-32.46 15.502-32.452 12.534-32.469 9.567-32.469 9.075-32.366 8.885-31.831 8.885-28.717 8.911-25.594 8.911-22.48 8.885-21.979 8.885-21.85 9.031-21.859 9.523-21.885 11.801-21.867 14.078-21.867 16.356-21.867 16.571-21.85 16.795-21.833 17.045H-16.528C-16.511 16.83-16.476 16.614-16.476 16.398-16.476 14.104-16.459 11.81-16.485 9.515-16.485 9.006-16.321 8.894-15.847 8.894-12.543 8.911-9.239 8.911-5.935 8.894-5.443 8.894-5.305 9.031-5.305 9.523-5.331 12.491-5.314 15.458-5.314 18.426V19.159ZM-.009 22.256H-37.783V28.13H-5.331V37.869H0V22.256Z" fill="#1a4689"/>
<path transform="matrix(1,0,0,-1,190.8565,422.8969)" d="M0 0C3.765 0 6.025 1.937 6.025 7.316V46.478C6.025 51.857 3.765 53.793 0 53.793H-6.025V0ZM-17.859 64.552H.215C12.05 64.552 17.859 57.99 17.859 45.94V7.854C17.859-4.196 12.05-10.758 .215-10.758H-17.859Z" fill="#0d0b0b"/>
<path transform="matrix(1,0,0,-1,237.1173,399.6578)" d="M0 0V5.164C0 10.005-2.044 11.834-5.594 11.834-9.145 11.834-11.189 10.005-11.189 5.164V0ZM11.189 4.088V-9.038H-11.189V-18.29C-11.189-23.131-9.252-24.961-5.487-24.961-1.829-24.961 .215-23.131 .215-18.29V-16.246H11.189V-17.214C11.189-28.618 5.272-35.073-5.702-35.073-16.676-35.073-22.593-28.618-22.593-17.214V4.088C-22.593 15.492-16.676 21.947-5.702 21.947 5.272 21.947 11.189 15.492 11.189 4.088" fill="#0d0b0b"/>
<path transform="matrix(1,0,0,-1,251.1046,378.7862)" d="M0 0H11.619L18.612-39.484 25.498 0H36.149L25.068-54.869H11.081Z" fill="#0d0b0b"/>
<path transform="matrix(1,0,0,-1,292.0945,416.2265)" d="M0 0V40.452C0 52.072 6.025 58.958 17.429 58.958 28.833 58.958 34.858 52.072 34.858 40.452V32.491H23.669V41.206C23.669 46.155 21.302 48.199 17.752 48.199 14.201 48.199 11.835 46.155 11.835 41.206V-.861C11.835-5.809 14.201-7.746 17.752-7.746 21.302-7.746 23.669-5.809 23.669-.861V10.113H34.858V0C34.858-11.619 28.833-18.505 17.429-18.505 6.025-18.505 0-11.619 0 0" fill="#0d0b0b"/>
<path transform="matrix(1,0,0,-1,355.1404,417.9478)" d="M0 0V23.454C0 27.22-1.184 30.124-5.379 30.124-9.575 30.124-10.758 27.22-10.758 23.454V0C-10.758-3.873-9.468-6.671-5.379-6.671-1.291-6.671 0-3.873 0 0M-22.162 1.076V22.378C-22.162 33.782-16.138 40.237-5.379 40.237 5.38 40.237 11.405 33.782 11.405 22.378V1.076C11.405-10.328 5.38-16.783-5.379-16.783-16.138-16.783-22.162-10.328-22.162 1.076" fill="#0d0b0b"/>
<path transform="matrix(1,0,0,-1,479.2993,401.0346)" d="M0 0C-.31 .017-.585-.207-.602-.534-.602-.585-.948-5.392-2.963-8.906-3.119-9.181-3.031-9.527-2.756-9.681-2.48-9.836-2.137-9.734-1.981-9.476 .156-5.719 .5-.809 .517-.602 .534-.292 .31-.017-.017 0ZM1.913 13.643C1.791 13.643 1.706 13.54 1.706 13.437 1.706 13.437 1.706 12.558 1.206 12.558 .707 12.558 .585 13.42 .585 13.42 .585 13.54 .465 13.625 .344 13.608 .224 13.608 .139 13.489 .156 13.367 .156 13.316 .31 12.127 1.206 12.127 1.947 12.127 2.137 12.989 2.137 13.437 2.137 13.557 2.032 13.643 1.93 13.643ZM2.549-2.015C2.239-1.981 1.947-2.205 1.913-2.515 1.913-2.532 1.654-4.461 .707-6.357 .568-6.632 .672-6.976 .965-7.115 1.257-7.251 1.584-7.149 1.723-6.856 2.756-4.788 3.014-2.739 3.031-2.653 3.065-2.344 2.843-2.049 2.532-2.015ZM3.102 16.778C2.843 16.778 2.308 16.83 1.671 16.9L3.085 19.173C3.17 19.31 3.119 19.483 2.997 19.568 2.86 19.656 2.687 19.604 2.602 19.483 2.602 19.483 1.671 17.984 1.24 17.312 .707 18.381-.775 19.5-.982 19.639-1.102 19.724-1.291 19.707-1.379 19.568-1.464 19.449-1.447 19.259-1.309 19.173-.602 18.657 .465 17.692 .775 17.002-.292 17.124-1.309 17.244-1.326 17.261-1.481 17.278-1.62 17.175-1.654 17.019-1.671 16.866-1.567 16.727-1.413 16.693-1.326 16.693-.139 16.537 .999 16.4 1.016 16.4 1.033 16.364 1.067 16.364 1.138 16.347 1.206 16.364 1.257 16.364 2.032 16.279 2.773 16.21 3.085 16.21 3.238 16.21 3.36 16.33 3.36 16.486 3.36 16.642 3.238 16.761 3.085 16.761ZM3.29 24.497C3.29 24.497 2.67 24.29 1.603 24.548L-2.29 25.684C-2.137 25.633-2.066 25.477-2.102 25.34-2.154 25.185-2.308 25.099-2.463 25.15L.568 24.273V24.237C.638 23.756 .741 22.962 .689 22.514 .31 22.567-.051 22.619-.397 22.687L-2.325 23.067C-2.48 23.101-2.636 22.997-2.67 22.843-2.705 22.687-2.602 22.533-2.446 22.514L-.5 22.136C.758 21.895 2.86 21.739 3.238 21.844 3.394 21.878 3.462 22.032 3.428 22.187 3.394 22.343 3.238 22.429 3.085 22.394 2.946 22.36 2.154 22.394 1.257 22.463 1.309 22.979 1.223 23.72 1.172 24.1L1.464 24.015C2.705 23.703 3.445 23.961 3.479 23.978 3.618 24.032 3.704 24.203 3.652 24.341 3.601 24.478 3.428 24.565 3.29 24.514ZM6.684-31.646C6.684-29.078 6.53 31.317 6.218 35.917 5.909 40.552 5.307 42.343 5.236 42.533L4.961 43.29H4.169L-98.106 43.135V41.999C-98.106 34.677-98.106-29.665-97.623-32.438L-97.467-33.403 6.701-32.765V-31.629ZM-95.452-31.127C-95.606-27.287-95.711-13.126-95.762 3.307-95.072 2.049-94.022 .224-93.54-.602-93.54-.862-93.42-25.15-93.401-31.11H-95.452ZM-85.116-31.059C-86.184-31.059-87.166-31.059-88.096-31.076-87.906-29.302-87.458-25.031-87.39-24.358-86.788-24.324-85.375-24.239-84.583-24.185-84.651-25.014-84.961-29.027-85.116-31.059M-80.689-31.025C-81.844-31.025-82.928-31.025-83.979-31.042L-83.411-23.618C-83.411-23.445-83.462-23.291-83.584-23.169-83.703-23.05-83.859-22.997-84.03-22.997L-87.958-23.257C-88.233-23.274-88.457-23.496-88.493-23.773L-89.268-31.093C-90.421-31.093-91.437-31.093-92.282-31.11-92.317-25.082-92.421-.448-92.421-.448-92.421-.344-92.455-.258-92.506-.173-93.73 1.93-95.055 4.271-95.331 4.841-95.107 5.582-93.057 9.388-91.128 12.799-91.111 12.833-91.093 12.885-91.076 12.919-91.025 13.092-90.991 13.299-90.991 13.54-90.991 13.971-91.128 14.454-91.525 14.78-91.198 15.004-90.56 15.28-89.922 15.28-89.663 15.28-89.32 15.211-89.112 14.883-88.854 14.454-88.94 13.764-89.337 13.04L-92.867 6.735C-92.972 6.547-92.972 6.323-92.867 6.15-90.974 3.17-90.094 1.981-89.646 1.499-90.37 .724-90.818-.19-90.818-.931-90.818-2.378-88.82-3.876-88.423-4.169-88.165-4.359-87.804-4.289-87.631-4.03-87.441-3.772-87.511-3.428-87.77-3.238-88.562-2.67-89.68-1.584-89.68-.931-89.68 .017-88.199 1.878-86.408 1.878-85.908 1.878-85.34 1.74-84.841 1.464-84.807 1.43-84.771 1.396-84.719 1.362-84.668 1.326-84.6 1.309-84.548 1.292-84.203 1.05-83.893 .741-83.703 .361-83.255-.534-83.496-1.671-84.393-2.894-84.583-3.153-84.529-3.497-84.271-3.687-84.013-3.876-83.669-3.825-83.479-3.567-81.981-1.55-82.222-.034-82.687 .879-82.911 1.326-83.238 1.706-83.618 1.998L-80.414 6.752C-80.309 6.908-80.292 7.098-80.361 7.288-80.38 7.322-82.049 11.576-82.497 13.367-82.687 14.142-82.619 14.814-82.273 15.246-82.032 15.572-81.654 15.728-81.206 15.728-80.309 15.728-80.051 15.589-79.983 15.487-79.931 15.436-79.914 15.314-79.914 15.211-79.914 15.143-79.914 15.056-79.931 14.987-80.051 14.178-80.465 13.832-80.482 13.815-80.621 13.696-80.706 13.54-80.706 13.367-80.706 13.299-80.706 13.213-80.655 13.143-80.655 13.143-77.95 7.046-77.709 6.511-78.019 6.064-80.292 2.619-80.292 2.619-80.361 2.515-80.397 2.412-80.397 2.308V2.256C-80.397 2.137-79.707-5.151-79.707-14.125-79.707-19.551-79.966-25.599-80.758-31.042ZM-91.697 6.494C-91.386 7.046-88.32 12.507-88.32 12.507-87.975 13.126-87.804 13.747-87.804 14.298-87.804 14.729-87.906 15.124-88.113 15.47-88.269 15.745-88.493 15.952-88.769 16.125H-87.407C-87.114 16.125-86.856 16.347-86.839 16.659-86.839 16.659-86.339 23.393-86.288 24.22-85.753 24.29-84.737 24.41-84.03 24.497-84.03 23.411-83.962 16.761-83.962 16.761-83.962 16.452-83.703 16.193-83.394 16.193H-82.877C-82.877 16.193-83.048 16.038-83.118 15.952-83.496 15.47-83.686 14.849-83.686 14.161-83.686 13.815-83.652 13.472-83.548 13.109-83.153 11.508-81.861 8.148-81.481 7.166-81.722 6.805-83.772 3.772-84.548 2.636-85.168 2.912-85.806 3.048-86.374 3.048-87.253 3.048-88.079 2.739-88.769 2.256-89.181 2.67-90.526 4.634-91.714 6.494ZM-88.786 2.239V2.239H-88.769ZM-82.894 25.133C-82.894 25.289-82.963 25.443-83.084 25.564-83.204 25.667-83.36 25.718-83.53 25.701L-86.873 25.289C-87.131 25.255-87.356 25.031-87.373 24.772-87.373 24.772-87.855 18.191-87.923 17.261H-91.939C-91.939 18.311-92.007 36.778-92.024 37.864-91.403 37.847-90.56 37.83-90.146 37.813-90.094 37.64-90.026 37.399-89.992 37.123L-89.234 29.526C-89.234 29.371-89.147 29.234-89.027 29.129-88.905 29.027-88.752 28.993-88.596 29.01L-84.909 29.509C-84.634 29.543-84.427 29.767-84.41 30.043-84.41 30.043-84.066 37.019-84.013 37.915-83.325 37.967-81.137 38.122-80.343 38.174-80.292 36.658-80.138 32.506-79.931 31.232-79.741 30.111-79.534 21.963-79.449 17.329H-82.826C-82.826 18.311-82.894 25.133-82.894 25.133M-65.151-30.956C-66.099-30.956-67.01-30.956-67.941-30.974-67.839-30.301-67.734-29.492-67.666-29.112-67.062-29.112-65.77-29.146-65.064-29.164-65.064-29.578-65.117-30.301-65.151-30.956M-60.103-.896C-60.103-1.998-60.361-24.599-60.412-30.922-61.618-30.922-62.824-30.922-63.996-30.939L-63.894-28.63C-63.894-28.476-63.945-28.32-64.048-28.218-64.152-28.096-64.306-28.045-64.445-28.028L-68.131-27.942C-68.424-27.942-68.665-28.147-68.699-28.423L-69.079-30.956C-70.008-30.956-70.921-30.956-71.818-30.974-71.766-28.079-71.645-20.533-71.645-13.608-71.645-9.198-71.696-5.065-71.835-2.532-71.835-2.429-71.869-2.325-71.937-2.239-71.937-2.239-74.798 1.947-75.158 2.48-74.798 3.065-68.492 13.557-68.492 13.557-68.441 13.643-68.406 13.747-68.406 13.85-68.406 13.971-68.441 14.108-68.526 14.212-68.733 14.471-69.079 15.039-69.079 15.487-69.079 15.606-69.062 15.711-68.991 15.813-68.648 16.364-68.389 16.33-67.632 16.159-66.993 16.02-66.133 15.606-65.841 15.365-66.374 14.108-69.405 8.252-71.318 4.583-71.369 4.496-71.386 4.41-71.386 4.325-71.386 4.203-71.352 4.083-71.284 3.996-70.232 2.549-68.665 .258-68.097-.792-68.321-.914-68.543-1.05-68.75-1.206-69.698-1.93-70.285-2.912-70.387-3.911-70.594-6.099-67.632-7.132-67.493-7.183-67.2-7.288-66.874-7.132-66.769-6.839-66.667-6.547-66.821-6.218-67.132-6.116-67.149-6.116-69.388-5.307-69.267-4.03-69.199-3.36-68.75-2.636-68.08-2.12-67.286-1.516-66.287-1.274-65.322-1.447-65.254-1.447-65.185-1.481-65.134-1.499-65.1-1.567-65.047-1.637-64.978-1.688-64.84-1.791-64.686-1.808-64.53-1.774-64.169-2.032-63.945-2.378-63.789-2.67-63.307-3.652-63.307-5.048-63.789-5.977-63.928-6.252-63.824-6.598-63.548-6.752-63.273-6.891-62.929-6.788-62.773-6.511-62.118-5.253-62.118-3.479-62.756-2.171-62.997-1.671-63.324-1.257-63.721-.948L-60.31 3.806C-60.19 3.962-60.173 4.169-60.241 4.342-60.259 4.41-62.705 10.716-62.636 12.989-62.549 15.436-62.015 15.813-61.153 16.159-60.741 16.33-60.395 16.193-60.19 16.055-59.776 15.779-59.501 15.228-59.501 14.678-59.501 13.884-59.896 13.747-59.966 13.73-60.12 13.696-60.259 13.591-60.327 13.455-60.378 13.367-60.395 13.265-60.395 13.16-60.395 13.109-60.395 13.04-60.361 12.989-60.361 12.989-57.02 3.17-56.796 2.532-57.227 2.103-59.879-.482-59.879-.482-59.983-.585-60.051-.741-60.051-.879ZM-64.376 30.06C-64.376 29.75-64.116 29.509-63.806 29.509H-60.602C-60.602 28.888-60.568 27.855-60.551 27.287-61.292 27.165-63.911 26.7-63.911 26.7-64.135 26.666-64.323 26.478-64.376 26.254L-65.305 21.654V21.551C-65.305 21.43-65.271 21.31-65.202 21.223-65.117 21.103-64.961 21.016-64.805 20.981-64.805 20.981-60.809 20.431-59.862 20.311-59.983 19.604-60.224 18.294-60.344 17.692-61.153 17.726-66.684 17.95-67.527 17.984-67.476 18.381-67.459 18.932-67.459 19.707-67.459 21.515-67.58 24.375-67.768 28.252L-67.839 29.612C-67.856 30.094-67.873 30.628-67.873 31.146-67.873 33.695-67.649 36.485-67.544 37.536-66.769 37.64-59.793 38.622-58.897 38.742-58.777 38.122-58.553 37.002-58.431 36.417-59.242 36.141-64.065 34.556-64.065 34.556-64.289 34.47-64.462 34.263-64.462 34.022L-64.376 30.077ZM-61.43 4.203C-61.689 3.842-63.894 .758-64.754-.431-64.876-.397-64.995-.361-65.117-.344-65.753-.224-66.408-.258-67.028-.414-67.666 .826-69.508 3.428-70.146 4.325-64.652 14.849-64.635 15.246-64.635 15.418-64.635 16.003-65.358 16.469-66.046 16.778-65.012 16.744-63.704 16.676-62.549 16.642-63.358 15.969-63.687 14.902-63.755 13.023V12.885C-63.755 10.56-61.877 5.478-61.394 4.203ZM-65.804 15.487-65.787 15.538C-65.787 15.538-65.787 15.487-65.804 15.47ZM-41.741-30.784C-43.118-30.784-44.496-30.784-45.873-30.801-45.53-26.977-45.081-22.17-44.909-20.603-44.289-20.638-43.256-20.603-41.446-20.482-41.482-21.378-41.653-28.13-41.741-30.784M-45.03-19.534C-45.03-19.534-44.891-19.656-44.84-19.775-44.874-19.673-44.945-19.587-45.03-19.534M-40.603-30.784-40.293-19.897C-40.293-19.741-40.362-19.587-40.464-19.466-40.586-19.363-40.741-19.293-40.895-19.31-42.669-19.449-44.806-19.534-45.15-19.449H-45.116C-45.22-19.397-45.323-19.363-45.427-19.38-45.771-19.414-46.151-21.602-46.546-25.925L-46.994-30.801C-48.183-30.801-49.353-30.801-50.542-30.818-50.439-26.254-50.095-11.232-49.906-2.705-49.906-2.566-49.94-2.446-50.008-2.361-51.058-.931-52.696 1.688-52.885 2.86-51.248 5.202-47.028 10.955-45.237 12.041-45.064 12.144-44.962 12.334-44.962 12.524-44.962 12.609-44.979 12.697-45.013 12.765-45.271 13.316-45.495 13.971-45.495 14.178-45.495 14.178-44.962 14.539-43.566 14.471-42.55 14.419-42.204 14.247-42.119 14.108-42.05 14.005-42.033 13.832-42.084 13.574-42.291 12.609-47.752 5.012-49.75 3.445-49.871 3.343-49.957 3.204-49.957 3.048-49.957 2.895-49.923 2.739-49.818 2.619L-46.872-.792C-47.476-1.396-47.871-2.171-47.871-2.946-47.871-4.53-45.702-6.099-45.461-6.252-45.203-6.425-44.857-6.374-44.667-6.116-44.496-5.857-44.548-5.495-44.806-5.324-45.547-4.807-46.736-3.704-46.736-2.946-46.736-1.981-45.513-.741-44.014-.672H-43.756C-42.635-.602-41.241-.534-40.62-1.121-40.362-1.362-40.259-1.706-40.259-2.188-40.259-4.41-40.776-5.426-40.776-5.443-40.912-5.719-40.81-6.064-40.534-6.201-40.259-6.34-39.913-6.252-39.777-5.96-39.758-5.909-39.121-4.72-39.121-2.171-39.121-1.825-39.173-1.533-39.258-1.24L-33.488 1.774C-33.23 1.913-33.108 2.239-33.23 2.515-33.368 2.843-36.778 10.526-37.708 11.973-38.071 12.524-37.725 13.282-37.572 13.574-37.123 14.419-36.366 14.936-35.934 14.936-34.85 14.936-33.644 14.005-33.574 13.643-33.608 13.437-34.178 12.765-34.797 12.249-34.935 12.144-35.004 11.973-35.004 11.817-35.004 11.715-34.97 11.61-34.918 11.525-34.884 11.457-30.991 5.168-30.094 3.29-29.56 2.188-29.424 1.603-29.405 1.326-29.87 .999-36.848-3.772-36.848-3.772-37.002-3.876-37.089-4.047-37.089-4.237V-4.271C-37.089-4.496-35.779-25.599-35.676-30.681-37.313-30.681-38.966-30.698-40.62-30.715ZM-42.945 20.172C-42.791 20.07-42.584 20.034-42.394 20.121-39.76 21.274-36.314 20.913-35.108 20.74-35.142 20.017-35.262 17.502-35.313 16.761-40.086 16.571-45.186 16.588-46.322 16.917-46.253 19.207-45.564 34.884-45.444 37.847-44.789 37.881-43.239 37.933-42.481 37.967-42.533 36.814-43.203 20.655-43.203 20.655-43.203 20.465-43.118 20.292-42.964 20.189ZM-38.673 11.301C-37.915 10.129-35.262 4.22-34.504 2.498-35.245 2.12-39.207 .051-39.862-.292-40.844 .638-42.498 .551-43.841 .482H-44.099C-44.772 .431-45.427 .224-45.995-.103-46.546 .517-48.149 2.395-48.631 2.946-46.253 5.185-41.275 12.076-41 13.35-40.964 13.54-40.947 13.713-40.947 13.867-40.947 14.229-41.051 14.556-41.241 14.814-41.551 15.211-42.05 15.418-42.601 15.521-40.983 15.487-39.121 15.521-37.277 15.572-37.83 15.194-38.295 14.625-38.588 14.091-38.88 13.557-39.036 13.006-39.036 12.507-39.036 12.076-38.914 11.662-38.69 11.318ZM-34.538-30.732C-34.643-25.891-35.779-7.234-35.934-4.583-35.435-4.237-28.493 .517-28.493 .517-28.371 .585-28.303 .707-28.269 .826V.879C-26.736-.568-24.066-2.446-22.928-3.238-23.601-4.754-25.684-9.905-25.684-14.987-25.684-15.745-25.633-16.52-25.53-17.261-24.719-22.877-20.482-26.064-19.035-27.012-19.329-27.528-20.396-29.424-21.086-30.647-25.306-30.681-29.853-30.698-34.521-30.732ZM-19.792-30.647-17.794-27.097C-17.726-26.96-17.709-26.805-17.743-26.666-17.794-26.529-17.882-26.391-18.018-26.322-18.07-26.288-23.566-23.186-24.427-17.107-25.306-10.904-21.756-3.36-21.722-3.29-21.602-3.031-21.688-2.739-21.912-2.566-24.358-.896-27.959 1.808-28.32 2.636-28.442 3.36-25.857 6.856-23.308 9.715-23.169 9.715-23.05 9.715-22.928 9.802-22.755 9.905-22.67 10.095-22.67 10.285-22.67 10.387-22.704 10.509-22.755 10.594-23.152 11.196-23.515 11.852-23.618 12.161-23.479 12.231-23.238 12.283-23.014 12.3-22.894 12.3-22.774 12.351-22.67 12.438-22.67 12.438-22.015 13.006-21.31 12.885-20.465 12.748-19.38 11.99-19.225 11.627-19.587 10.904-22.429 7.51-25.082 4.53-25.167 4.427-25.219 4.289-25.219 4.152V4.047C-25.185 3.876-25.065 3.721-24.909 3.652L-19.207 .843C-19.242 .482-19.225 .156-19.207-.103V-.361C-19.207-1.379-17.451-2.566-16.417-3.187-16.142-3.343-15.796-3.255-15.643-2.997-15.589-2.912-15.555-2.807-15.555-2.705-15.555-2.515-15.66-2.325-15.831-2.222-16.934-1.567-18.001-.672-18.07-.344V-.051C-18.07 .086-18.087 .224-18.087 .361-18.087 1.24-17.811 2.256-15.504 2.756-13.815 3.119-12.558 3.014-11.869 2.463-11.403 2.083-11.179 1.481-11.179 .638-11.179-1.309-11.627-1.93-11.644-1.93-11.834-2.171-11.8-2.532-11.559-2.722-11.318-2.912-10.974-2.894-10.784-2.67-10.663-2.532-10.06-1.723-10.06 .638-10.06 1.067-10.112 1.481-10.214 1.825-5.633 5.599-5.117 6.615-5.117 7.046-5.117 7.115-5.117 7.166-5.134 7.217-5.271 7.734-5.994 8.199-12.385 11.179-13.833 11.852-15.435 12.592-16.072 12.938-15.848 13.437-15.177 14.419-14.522 14.678L-13.643 15.073C-13.54 15.124-13.437 15.177-13.333 15.228-13.316 15.021-13.282 14.78-13.282 14.78-13.282 14.315-13.247 13.679-12.626 13.367-12.351 13.23-11.852 13.109-11.111 12.919-10.25 12.714-9.079 12.419-7.873 12.007-5.857 11.301-1.808 9.457-.775 8.786-1.706 7.27-6.408 1.067-7.529-.139-8.08-.741-8.389-2.205-8.889-4.754-9.405-7.373-10.06-10.646-11.179-12.351-11.249-12.456-11.284-12.558-11.284-12.661-11.284-12.731-11.284-12.799-11.249-12.885-11.179-13.058-11.025-13.179-10.835-13.23-10.835-13.23-5.529-14.349-4.858-14.488-4.737-15.194-3.497-22.894-3.497-22.894-3.462-23.101-3.324-23.257-3.136-23.342-2.946-23.411-2.739-23.376-2.566-23.257-1.998-22.791-.292-21.551 .621-21.361 1.43-21.206 2.395-21.773 2.687-22.102 1.947-22.997-2.188-26.356-4.651-26.907-5.392-24.719-7.666-18.381-8.974-17.485-9.096-17.399-9.268-17.365-9.405-17.399L-18.277-19.242C-18.501-19.293-18.674-19.449-18.708-19.673V-19.792C-18.708-19.965-18.622-20.138-18.484-20.241-18.484-20.241-12.919-24.514-12.3-24.996-12.524-25.53-13.971-28.941-14.661-30.611-16.296-30.611-18.018-30.628-19.792-30.647M-18.364 24.772C-17.984 20.964-17.675 16.795-17.675 15.004-17.675 14.678-17.675 14.471-17.709 14.315-18.243 14.212-20.017 14.556-21.895 15.107-21.844 15.901-21.756 17.658-21.756 19.741-21.756 21.464-21.827 23.393-22.015 25.202-22.309 28.028-22.377 31.405-22.377 33.644-22.377 34.592-22.377 35.279-22.36 35.693-21.447 35.986-18.742 36.778-15.728 36.709-13.954 36.675-8.097 36.21-7.063 31.868-6.993 31.61-6.976 31.351-6.976 31.11-6.976 30.577-7.132 30.077-7.441 29.595-8.63 27.787-12.161 26.356-17.916 25.357-18.191 25.306-18.381 25.065-18.381 24.789V24.738ZM-17.261 12.558C-17.175 12.178-17.158 12.161-12.851 10.146-10.697 9.147-7.251 7.546-6.357 6.942-6.874 6.235-8.854 4.427-10.716 2.895-10.852 3.065-10.991 3.221-11.162 3.36-12.144 4.152-13.679 4.325-15.745 3.876-17.57 3.479-18.45 2.722-18.864 1.93-19.724 2.361-22.843 3.894-23.737 4.325-18.087 10.733-18.07 11.352-18.07 11.593-18.07 12.231-18.725 12.868-19.483 13.333-18.157 13.092-17.502 13.16-17.141 13.299-17.227 13.075-17.295 12.868-17.295 12.714V12.558ZM-12.697 17.726C-12.419 18.157-11.852 18.605-11.162 18.64-11.111 18.64-11.077 18.64-11.025 18.657-11.008 18.657-9.251 19.173-8.752 18.328-8.511 17.933-8.457 17.519-8.596 17.105-8.786 16.503-9.354 15.969-10.163 15.624-10.663 15.418-11.128 15.401-11.559 15.572-12.197 15.831-12.643 16.452-12.833 16.917-12.919 17.124-12.868 17.416-12.68 17.709ZM-13.437-30.611-11.094-25.048C-11.094-25.048-11.042-24.909-11.042-24.824-11.042-24.651-11.111-24.478-11.267-24.375-11.267-24.375-15.382-21.206-16.812-20.104-15.073-19.741-9.956-18.674-9.457-18.569-8.647-19.432-6.874-23.773-5.548-27.752-5.46-28.011-5.219-28.164-4.961-28.13-2.222-27.872 3.928-23.221 3.928-22.119 3.928-21.773 3.704-21.412 3.29-21.069 2.602-20.499 1.43-20.017 .414-20.224-.482-20.413-1.706-21.188-2.498-21.773-2.739-20.275-3.772-13.92-3.772-13.92-3.806-13.679-3.979-13.506-4.22-13.455-4.22-13.455-8.647-12.524-9.819-12.283-8.82-10.319-8.252-7.407-7.77-4.978-7.424-3.255-7.046-1.309-6.684-.914-6.615-.826 .5 7.77 .5 8.993V9.044C.275 10.146-7.407 13.04-7.493 13.075-8.752 13.506-9.956 13.815-10.835 14.022-11.403 14.161-11.956 14.298-12.127 14.383-12.127 14.419-12.144 14.505-12.144 14.607-12.093 14.59-12.059 14.556-12.007 14.539-11.284 14.247-10.509 14.264-9.734 14.607-8.613 15.09-7.838 15.865-7.529 16.778-7.287 17.502-7.39 18.26-7.787 18.932-8.699 20.448-10.974 19.88-11.318 19.775-12.248 19.69-13.16 19.139-13.66 18.328-14.04 17.709-14.125 17.054-13.901 16.486-13.867 16.417-13.833 16.33-13.798 16.262-13.92 16.21-14.04 16.159-14.161 16.089L-14.936 15.728C-15.538 15.487-16.159 14.902-16.624 14.264-16.605 14.539-16.588 14.866-16.588 15.28-16.588 17.382-16.9 21.069-17.209 24.358-11.369 25.426-7.855 26.941-6.494 28.993-6.064 29.646-5.84 30.37-5.84 31.127-5.84 31.456-5.875 31.8-5.96 32.145-6.788 35.608-10.438 37.743-15.711 37.864-19.621 37.95-22.979 36.709-23.118 36.658-23.342 36.573-23.479 36.366-23.479 36.141-23.479 36.073-23.635 29.853-23.135 25.099-22.653 20.431-23.05 14.797-23.05 14.729-23.067 14.471-22.911 14.229-22.653 14.142-22.446 14.074-22.239 14.022-22.051 13.971-22.619 13.85-23.067 13.574-23.291 13.401-23.807 13.333-24.806 13.109-24.806 12.266-24.806 11.834-24.444 11.128-24.083 10.526-25.788 8.63-28.218 5.719-29.095 3.755-29.923 5.46-32.816 10.214-33.712 11.645-33.179 12.144-32.455 12.919-32.455 13.591-32.455 14.349-33.403 15.228-34.521 15.694-34.35 15.779-34.229 15.952-34.212 16.159L-33.953 21.188C-33.953 21.464-34.143 21.722-34.419 21.773-34.609 21.809-38.622 22.567-42.05 21.447-41.982 22.962-41.326 38.536-41.326 38.554-41.326 38.707-41.395 38.846-41.499 38.949-41.619 39.07-41.775 39.121-41.929 39.121L-46.029 38.949C-46.322 38.949-46.563 38.707-46.58 38.398-46.614 37.555-47.493 17.536-47.493 16.605L-47.269 16.106C-46.994 15.831-46.029 15.66-44.686 15.572-45.702 15.47-46.39 15.124-46.614 14.556-46.65 14.454-46.684 14.315-46.684 14.178-46.684 13.747-46.494 13.213-46.287 12.697-48.853 10.716-53.782 3.601-54.004 3.272-54.074 3.17-54.109 3.065-54.109 2.946V2.912C-54.021 1.24-51.662-2.154-51.094-2.929-51.146-5.307-51.611-25.443-51.731-30.869-54.282-30.869-56.83-30.905-59.311-30.922-59.242-24.807-59.018-3.548-59.001-1.155-58.69-.862-55.814 1.947-55.814 1.947-55.71 2.049-55.641 2.205-55.641 2.361-55.641 2.429-55.641 2.48-55.676 2.549-55.676 2.549-58.931 12.076-59.208 12.902-58.794 13.196-58.414 13.73-58.414 14.678-58.414 15.521-58.794 16.33-59.413 16.847-59.379 16.9-59.362 16.951-59.345 17.002L-58.673 20.689V20.791C-58.673 20.913-58.709 21.033-58.777 21.12-58.863 21.24-59.001 21.327-59.155 21.344-59.155 21.344-63.117 21.878-64.082 22.015-63.911 22.826-63.463 25.099-63.358 25.65-62.739 25.754-59.896 26.254-59.896 26.254-59.62 26.305-59.43 26.546-59.43 26.822L-59.518 30.094C-59.518 30.406-59.776 30.645-60.086 30.645H-63.29C-63.29 31.369-63.341 33.04-63.358 33.61-62.654 33.832-57.639 35.486-57.639 35.486-57.398 35.574-57.244 35.779-57.244 36.02V36.141L-57.915 39.482C-57.985 39.777-58.26 39.982-58.553 39.931L-68.182 38.588C-68.441 38.554-68.648 38.347-68.665 38.088-68.682 37.881-69.164 33.057-69.009 29.543L-68.94 28.183C-68.784 25.082-68.475 18.64-68.716 17.882-68.784 17.709-68.855 17.519-68.872 17.312-69.267 17.209-69.664 16.951-70.008 16.4-70.198 16.106-70.266 15.779-70.266 15.47-70.266 14.797-69.939 14.195-69.698 13.815-70.061 13.23-76.365 2.739-76.365 2.739-76.416 2.653-76.452 2.549-76.452 2.446-76.452 2.325-76.416 2.222-76.347 2.12-76.347 2.12-73.177-2.515-73.007-2.773-72.868-5.288-72.834-9.337-72.834-13.625-72.834-20.552-72.953-28.13-73.007-31.008-75.314-31.008-77.519-31.042-79.569-31.042-78.777-25.581-78.535-19.551-78.535-14.125-78.535-5.857-79.103 .965-79.208 2.171-79.001 2.48-76.554 6.15-76.554 6.15-76.486 6.252-76.452 6.357-76.452 6.459-76.452 6.547-76.452 6.615-76.503 6.701-76.503 6.701-79.156 12.661-79.432 13.282-79.191 13.574-78.879 14.074-78.777 14.849-78.759 14.987-78.742 15.107-78.742 15.228-78.742 15.624-78.845 15.935-79.052 16.193H-78.915C-78.759 16.193-78.621 16.262-78.501 16.364-78.397 16.469-78.328 16.624-78.328 16.778-78.328 17.312-78.587 29.904-78.845 31.422-79.086 32.869-79.259 38.742-79.259 38.795-79.259 38.949-79.327 39.087-79.449 39.207-79.569 39.311-79.724 39.363-79.878 39.346L-84.651 39.019C-84.944 39-85.168 38.759-85.185 38.483-85.185 38.483-85.528 31.422-85.582 30.577-86.167 30.491-87.511 30.318-88.199 30.216-88.303 31.215-88.888 37.26-88.888 37.26-88.993 38.018-89.268 38.588-89.285 38.622-89.371 38.812-89.561 38.931-89.785 38.931L-92.626 39.019C-92.782 39.019-92.938 38.966-93.04 38.863-93.143 38.759-93.213 38.605-93.213 38.449L-93.126 16.693C-93.126 16.383-92.867 16.125-92.558 16.125H-91.437C-92.161 15.831-92.782 15.382-92.867 14.866V14.712C-92.867 14.383-92.66 14.091-92.299 13.954-92.161 13.901-92.127 13.747-92.127 13.591-92.127 13.472-92.127 13.367-92.161 13.316-94.125 9.853-95.211 7.821-95.813 6.598-95.847 18.087-95.864 30.406-95.864 40.878-93.659 40.878 1.55 41.034 3.255 41.034 3.394 40.396 3.601 39.311 3.755 37.691 2.171 37.777 .826 37.83 .604 36.934 .585 36.848 .568 36.761 .568 36.692 .568 36.193 .982 35.849 1.326 35.574 1.567 35.384 1.808 35.177 1.808 35.021V34.935H1.654C1.464 34.935 1.084 34.935 .965 34.556 .965 34.504 .948 34.453 .948 34.402 .948 34.073 1.257 33.832 1.62 33.661 1.05 33.369 .758 33.091 .758 32.833 .758 32.54 1.103 32.231 1.637 31.8 1.257 31.817 .758 31.851 .31 31.904 .173 31.904 .051 31.834 .017 31.714V31.627C.017 31.524 .068 31.439 .156 31.388 .809 30.974 1.533 30.491 1.913 30.199 1.567 30.164 1.033 30.145 .568 30.145 .448 30.145 .327 30.06 .292 29.94V29.853C.292 29.75 .344 29.663 .431 29.612 .896 29.319 1.654 28.596 1.947 28.235 1.499 28.218 .5 28.286-.378 28.371-.534 28.371-.672 28.269-.689 28.113-.689 27.959-.585 27.821-.431 27.804-.378 27.804-.31 27.804-.258 27.787-.465 27.614-.689 27.372-.758 27.063-.792 26.856-.775 26.546-.482 26.22 .122 25.547 1.138 25.255 1.791 25.34 2.205 25.409 2.395 25.616 2.463 25.771 2.653 26.184 2.429 26.805 1.774 27.648 2.103 27.648 2.361 27.682 2.463 27.735 2.585 27.804 2.636 27.906 2.653 28.045 2.653 28.423 1.981 29.078 1.43 29.56 2.085 29.578 2.498 29.663 2.636 29.802 2.687 29.853 2.739 29.975 2.739 30.043 2.739 30.164 2.722 30.37 1.464 31.215 2.429 31.146 2.515 31.215 2.585 31.3 2.653 31.351 2.687 31.439 2.687 31.524 2.687 31.714 2.568 31.8 2.154 32.128 1.93 32.299 1.516 32.645 1.413 32.816 1.533 32.954 2.015 33.213 2.498 33.403 2.602 33.437 2.687 33.557 2.687 33.661 2.687 33.798 2.602 33.902 2.481 33.936 2.12 34.039 1.774 34.229 1.637 34.35H1.706C1.878 34.35 2.12 34.35 2.291 34.521L2.463 35.004C2.463 35.435 2.103 35.745 1.774 36.003 1.396 36.314 1.172 36.519 1.24 36.778 1.362 37.226 2.756 37.158 3.876 37.106H3.894C3.928 36.692 3.962 36.244 3.996 35.779 4.272 31.593 4.427-22.102 4.444-30.508 3.859-30.508-3.221-30.559-13.367-30.611ZM1.844 25.996C1.844 25.996 1.723 25.891 1.603 25.874 1.121 25.806 .292 26.064-.156 26.563-.327 26.753-.292 26.873-.292 26.907-.241 27.183 .19 27.46 .344 27.528 .414 27.562 .465 27.614 .482 27.682 .638 27.682 .775 27.665 .931 27.648 1.998 26.408 1.861 26.03 1.844 25.996M2.015 20.362C2.239 20.292 2.378 20.396 2.412 20.448 2.585 20.621 2.532 20.896 2.446 21.103 2.412 21.206 2.308 21.293 2.188 21.293 2.066 21.293 1.964 21.223 1.913 21.12L1.791 20.828C1.791 20.828 1.774 20.757 1.774 20.706 1.774 20.672 1.808 20.672 1.825 20.638 1.825 20.499 1.895 20.396 2.015 20.345ZM1.206 15.504C.448 15.453-1.033 14.712-1.033 13.248-1.033 11.783-.275 10.991 1.189 10.991 2.481 10.991 3.187 11.852 3.187 13.42 3.187 13.988 2.929 14.522 2.481 14.953 2.083 15.331 1.584 15.538 1.206 15.504M1.189 11.559C.051 11.559-.465 12.076-.465 13.248-.465 14.419 .741 14.902 1.24 14.936 1.43 14.936 1.774 14.831 2.103 14.522 2.291 14.332 2.619 13.954 2.619 13.401 2.619 12.161 2.137 11.542 1.172 11.542ZM-76.52-12.127C-76.554-12.438-76.313-12.714-76.004-12.748-75.694-12.782-75.417-12.541-75.383-12.231-75.212-10.285-75.383-6.133-75.383-5.96-75.383-5.65-75.658-5.409-75.969-5.409-76.279-5.409-76.537-5.685-76.52-5.994-76.52-6.03-76.347-10.25-76.52-12.11ZM-3.048-1.481C-3.36-1.481-3.618-1.723-3.635-2.032-3.669-3.136-3.859-5.134-4.22-5.77-4.376-6.047-4.289-6.391-4.013-6.547-3.738-6.701-3.394-6.615-3.238-6.34-2.602-5.236-2.498-2.378-2.48-2.049-2.48-1.74-2.722-1.481-3.031-1.464ZM-13.679 30.577C-13.109 31.127-12.782 31.731-12.782 32.265-12.782 32.799-13.143 33.196-13.833 33.539-14.763 33.988-17.002 34.47-17.641 33.971-17.811 33.832-18.26 33.471-18.433 29.612-18.433 29.458-18.381 29.319-18.277 29.2-18.174 29.078-18.036 29.027-17.882 29.01-16.296 28.958-14.729 29.543-13.662 30.559ZM-16.9 33.04C-16.21 33.127-14.125 32.628-13.92 32.231-13.92 32.145-14.04 31.817-14.471 31.405-15.021 30.852-16.037 30.318-17.261 30.216-17.175 31.439-17.036 32.679-16.9 33.057ZM-54.316-4.703C-54.35-4.807-55.193-7.183-55.022-9.286-54.986-9.595-54.711-9.836-54.401-9.802-54.092-9.768-53.85-9.51-53.884-9.181-54.04-7.322-53.246-5.082-53.246-5.065-53.144-4.771-53.3-4.444-53.592-4.342-53.884-4.237-54.211-4.393-54.316-4.686ZM-51.455 21.033C-52.817 21.188-54.54 20.947-55.298 20.087-55.727 19.587-55.866 18.864-55.658 18.157-55.434 17.382-54.798 16.795-53.936 16.554-52.576 16.176-50.87 15.694-50.077 17.726-49.733 18.622-49.75 19.483-50.147 20.138-50.439 20.621-50.939 20.947-51.473 21.016ZM-51.129 18.157C-51.49 17.209-51.972 17.192-53.626 17.658-54.109 17.794-54.452 18.087-54.557 18.484-54.659 18.847-54.557 19.173-54.435 19.329-54.04 19.775-52.781 20.034-51.577 19.897-51.387 19.88-51.214 19.758-51.112 19.568-50.905 19.225-50.922 18.725-51.129 18.157M-24.1-23.737C-24.29-23.479-24.634-23.411-24.892-23.6-25.15-23.79-25.202-24.134-25.031-24.392L-24.032-25.823C-23.842-26.081-23.496-26.149-23.238-25.959-22.979-25.771-22.911-25.426-23.101-25.167ZM-55.573-4.083C-55.831-3.911-56.192-3.996-56.348-4.254-56.416-4.359-57.881-6.771-56.848-12.283-56.796-12.592-56.485-12.799-56.175-12.731-55.866-12.68-55.658-12.368-55.727-12.059-56.675-7.046-55.4-4.875-55.383-4.841-55.227-4.566-55.298-4.22-55.573-4.066ZM-73.316 21.878C-74.97 21.878-76.262 20.879-76.262 19.587-76.262 18.294-74.97 17.295-73.316 17.295-71.662 17.295-70.353 18.294-70.353 19.587-70.353 20.879-71.645 21.878-73.316 21.878M-73.316 18.45C-74.298 18.45-75.124 18.966-75.124 19.587-75.124 20.207-74.298 20.723-73.316 20.723-72.334 20.723-71.508 20.207-71.508 19.587-71.508 18.966-72.334 18.45-73.316 18.45M-29.56-13.247C-27.494-8.682-28.406-4.995-28.442-4.841-28.527-4.53-28.837-4.359-29.129-4.427-29.441-4.513-29.612-4.824-29.543-5.117-29.543-5.151-28.7-8.596-30.594-12.782-30.715-13.075-30.594-13.401-30.318-13.54-30.026-13.662-29.699-13.54-29.56-13.265ZM-28.13 20.207C-29.441 20.07-30.645 19.5-31.266 18.708-31.646 18.226-31.8 17.692-31.731 17.141-31.629 16.364-31.008 15.66-30.094 15.228-29.095 14.78-28.011 14.814-27.253 15.314-26.322 15.935-25.255 16.812-25.409 18.036-25.53 19.018-26.977 20.328-28.113 20.207ZM-27.889 16.262C-28.406 15.918-29.112 16.038-29.629 16.262-30.164 16.503-30.56 16.917-30.611 17.278-30.645 17.519-30.56 17.76-30.387 17.984-29.957 18.535-29.01 18.966-28.028 19.052-27.511 19.105-26.598 18.26-26.563 17.882-26.529 17.587-26.632 17.107-27.906 16.245ZM-31.817-4.927C-32.128-5.012-32.299-5.324-32.214-5.633-32.214-5.667-31.524-8.216-32.265-9.853-32.404-10.146-32.265-10.475-31.99-10.611-31.697-10.75-31.369-10.611-31.232-10.336-30.318-8.338-31.076-5.46-31.11-5.341-31.198-5.029-31.507-4.858-31.8-4.944ZM-27.718-22.928C-27.923-22.687-28.286-22.67-28.527-22.86-28.768-23.067-28.786-23.428-28.596-23.669L-25.581-27.183C-25.374-27.424-25.014-27.443-24.772-27.253-24.531-27.046-24.514-26.683-24.702-26.442ZM-26.529-28.079-29.129-26.58C-29.405-26.425-29.75-26.512-29.904-26.788-30.06-27.063-29.974-27.407-29.699-27.562L-27.097-29.061C-26.822-29.217-26.478-29.129-26.322-28.854-26.166-28.578-26.254-28.235-26.529-28.079M-1.138 34.797C-.86 34.918-.551 35.055-.602 35.332-.619 35.452-.724 35.591-1.033 35.591-1.291 35.591-1.464 35.503-1.55 35.332-1.637 35.16-1.55 34.97-1.464 34.867-1.379 34.763-1.257 34.746-1.138 34.78ZM-1.138 35.332C-1.138 35.332-1.033 35.296-.999 35.245V35.194 35.125C-.999 35.091-1.033 35.091-1.05 35.072-1.084 35.108-1.121 35.142-1.138 35.211V35.279C-1.138 35.313-1.138 35.313-1.121 35.332Z" fill="#1a4689"/>
</g>
</g>
</svg>
